<svg width="50" height="50" viewBox="0 0 50 50" fill="none" xmlns="http://www.w3.org/2000/svg">
<path d="M50 25C50 20.0555 48.5338 15.222 45.7867 11.1107C43.0397 6.99952 39.1352 3.7952 34.5671 1.90301C29.9989 0.0108208 24.9723 -0.484263 20.1227 0.480368C15.2732 1.445 10.8186 3.82602 7.32233 7.32233C3.82602 10.8186 1.445 15.2732 0.480368 20.1227C-0.484263 24.9723 0.0108209 29.9989 1.90301 34.5671C3.7952 39.1352 6.99952 43.0397 11.1107 45.7867C15.222 48.5338 20.0555 50 25 50L25 43C21.4399 43 17.9598 41.9443 14.9997 39.9665C12.0397 37.9886 9.73255 35.1774 8.37017 31.8883C7.00779 28.5992 6.65133 24.98 7.34586 21.4884C8.0404 17.9967 9.75473 14.7894 12.2721 12.2721C14.7894 9.75473 17.9967 8.0404 21.4884 7.34586C24.98 6.65133 28.5992 7.00779 31.8883 8.37017C35.1774 9.73255 37.9886 12.0397 39.9665 14.9997C41.9443 17.9598 43 21.4399 43 25H50Z" fill="#5D4835"/>
<path d="M50 25C50 26.3807 49 28.5 46.5 28.5C44 28.5 43 26.3807 43 25C43 23.6193 44 21.5 46.5 21.5C49 21.5 50 23.6193 50 25Z" fill="#5D4835"/>
<path d="M28.5 46.5C28.5 49 26.3807 50 25 50C23.6193 50 21.5 49 21.5 46.5C21.5 44 23.6193 43 25 43C26.3807 43 28.5 44 28.5 46.5Z" fill="#5D4835"/>
</svg>
